<?xml version="1.0" standalone="no"?>
<!DOCTYPE svg PUBLIC "-//W3C//DTD SVG 20010904//EN"
 "http://www.w3.org/TR/2001/REC-SVG-20010904/DTD/svg10.dtd">
<svg version="1.0" xmlns="http://www.w3.org/2000/svg"
 width="1024.000000pt" height="1024.000000pt" viewBox="0 0 1024.000000 1024.000000"
 preserveAspectRatio="xMidYMid meet">

<g transform="translate(0.000000,1024.000000) scale(0.100000,-0.100000)"
fill="#FFFFFF" stroke="none">
<path d="M4414 8266 c-129 -42 -270 -161 -325 -276 -67 -138 -64 -107 -67
-652 -3 -442 -5 -498 -18 -498 -9 0 -48 35 -87 78 -40 42 -109 114 -154 158
-81 79 -93 97 -74 108 5 3 7 141 3 321 l-5 315 45 40 c56 49 72 85 66 153 -8
91 -82 172 -174 192 -71 14 -175 -39 -211 -108 -22 -43 -22 -133 1 -176 21
-39 62 -80 92 -91 20 -8 21 -18 27 -182 8 -202 9 -333 2 -339 -2 -3 -139 129
-305 293 -265 262 -300 300 -290 317 27 51 1 149 -52 198 -56 52 -152 76 -215
52 -33 -12 -90 -64 -108 -99 -21 -41 -27 -105 -15 -151 27 -98 147 -162 235
-125 37 16 39 16 49 -1 17 -31 247 -265 571 -581 394 -385 435 -428 468 -492
l27 -52 -233 1 c-127 1 -432 -3 -677 -8 -480 -9 -502 -11 -620 -68 -75 -36
-177 -140 -222 -228 -75 -145 -73 -127 -72 -730 0 -485 2 -546 18 -600 46
-157 163 -305 286 -362 116 -54 139 -57 450 -52 315 4 1062 0 1068 -6 2 -2 -6
-23 -19 -46 -14 -25 -99 -112 -209 -213 l-184 -171 -174 -3 -174 -3 19 32 c10
17 56 75 103 127 47 52 95 107 108 123 l22 28 -55 6 c-53 7 -59 6 -108 -28
-125 -87 -190 -163 -210 -248 -4 -16 -16 -29 -29 -33 -13 -3 -115 -6 -227 -6
l-204 0 -38 34 c-91 83 -230 66 -312 -37 -54 -66 -49 -188 11 -259 53 -62 164
-87 238 -52 45 21 90 74 105 122 l11 39 172 6 c201 8 433 7 529 -2 l68 -6
-212 -225 c-116 -124 -237 -255 -268 -292 l-56 -68 -53 0 c-108 0 -191 -76
-215 -197 -13 -65 37 -157 108 -199 31 -18 56 -24 99 -24 63 0 98 14 137 57
50 53 62 90 56 169 -3 40 -11 82 -17 94 -11 21 0 34 142 179 84 86 220 230
302 320 125 136 151 161 157 145 3 -11 8 -144 10 -296 l4 -277 -39 -18 c-43
-19 -88 -75 -107 -130 -26 -81 24 -187 111 -231 138 -69 299 35 300 194 0 56
-27 107 -82 154 l-29 25 -5 375 -6 375 167 168 c91 92 170 165 176 162 5 -4 8
-242 7 -618 l-2 -612 23 -70 c69 -211 202 -354 392 -423 l74 -27 422 -3 c233
-2 507 1 610 6 176 9 192 12 257 40 184 80 304 229 356 442 19 80 20 117 20
662 0 379 3 579 10 583 6 4 77 -62 159 -146 l148 -153 7 -380 6 -381 -34 -30
c-54 -47 -76 -92 -76 -156 0 -68 29 -129 84 -173 34 -28 44 -31 110 -31 64 0
78 3 116 30 67 46 95 96 95 169 0 75 -34 134 -100 174 l-44 27 -1 282 c0 155
4 284 8 287 5 3 26 -18 48 -46 21 -29 157 -170 301 -315 l262 -263 -16 -37
c-40 -96 -7 -202 81 -260 155 -104 355 53 296 233 -33 98 -94 149 -179 149
-52 0 -58 3 -85 35 -16 19 -95 100 -175 180 -81 80 -223 228 -316 329 -94 101
-219 231 -280 288 -133 126 -328 333 -321 341 10 9 399 1 437 -9 20 -5 44 -20
52 -32 8 -13 44 -55 79 -93 34 -39 118 -140 185 -225 67 -85 140 -172 162
-193 l40 -39 200 -5 200 -5 12 -36 c55 -170 282 -190 366 -32 71 134 -36 313
-187 313 -53 0 -93 -18 -136 -60 l-29 -29 -162 -7 -161 -7 -69 78 c-194 218
-264 302 -298 355 l-24 37 317 -6 c221 -4 340 -2 392 6 164 26 314 137 384
284 73 153 71 133 71 717 0 480 -2 531 -18 590 -54 190 -176 330 -351 402
l-81 33 -667 5 c-366 3 -670 8 -674 12 -23 24 80 161 242 319 l109 106 175
-10 c216 -12 226 -12 544 -7 190 3 261 1 264 -8 22 -66 105 -122 182 -122 61
0 146 50 173 102 43 85 32 156 -36 234 -66 75 -139 93 -222 55 -44 -20 -95
-73 -95 -98 0 -14 -42 -15 -412 -8 -227 4 -416 9 -420 11 -8 5 329 344 466
469 l88 80 52 -3 c109 -7 196 63 204 164 8 102 -55 199 -147 224 -140 37 -300
-140 -236 -263 14 -27 13 -29 -28 -64 -82 -72 -429 -419 -490 -491 l-62 -73
-7 213 c-7 238 -2 328 18 328 43 0 113 103 114 168 0 105 -104 212 -207 212
-86 0 -185 -86 -198 -173 -10 -68 10 -123 65 -177 l48 -47 3 -332 3 -332 -148
-159 c-81 -88 -156 -165 -167 -170 -19 -11 -19 -2 -19 474 0 546 -4 589 -65
705 -64 122 -194 231 -323 271 -61 19 -93 20 -686 20 -619 -1 -621 -1 -692
-24z m-784 -236 c27 -27 25 -56 -5 -76 -31 -20 -50 -14 -70 26 -30 58 28 97
75 50z m3803 -19 c-5 -3 -14 -17 -20 -31 -9 -19 -12 -21 -12 -7 -1 26 18 59
31 51 5 -4 6 -9 1 -13z m32 -11 c3 -5 1 -10 -4 -10 -6 0 -11 5 -11 10 0 6 2
10 4 10 3 0 8 -4 11 -10z m-876 -40 c7 0 9 -4 6 -10 -9 -14 -21 -12 -39 6 -22
22 -20 41 2 21 10 -10 24 -17 31 -17z m831 -20 c0 -5 -2 -10 -4 -10 -3 0 -8 5
-11 10 -3 6 -1 10 4 10 6 0 11 -4 11 -10z m-2236 -51 c3 -17 6 -71 6 -120 l0
-89 120 7 120 6 0 -81 0 -81 -36 -7 c-20 -4 -74 -4 -120 -1 l-84 6 0 -124 0
-125 -74 0 c-58 0 -75 3 -80 16 -3 9 -6 65 -6 125 l0 109 -119 0 c-118 0 -119
0 -125 25 -3 13 -3 50 0 81 l7 56 123 -7 124 -7 -6 75 c-4 41 -4 95 0 121 l7
46 68 0 69 0 6 -31z m2689 -709 c9 -11 16 -30 15 -43 -3 -30 -36 -33 -48 -4
-8 21 -9 20 -9 -6 -1 -24 -4 -26 -20 -18 -37 21 -36 60 2 79 32 15 41 14 60
-8z m-2581 -241 c369 -51 752 -362 908 -735 38 -93 77 -258 86 -371 l7 -83
446 0 c245 0 463 -3 483 -6 35 -6 37 -4 57 33 62 122 218 171 345 109 139 -68
196 -222 130 -354 -47 -95 -132 -146 -239 -146 -110 0 -192 54 -242 162 l-24
52 -483 0 -482 0 -12 -78 c-19 -122 -39 -189 -86 -288 -136 -286 -332 -479
-611 -603 -107 -48 -270 -91 -341 -91 l-52 0 2 -441 1 -441 46 -24 c158 -80
199 -309 77 -435 -132 -136 -356 -100 -444 73 -36 72 -40 124 -15 206 24 80
67 130 141 164 l45 21 0 433 0 433 -55 6 c-90 10 -245 52 -328 88 -388 169
-698 557 -729 913 l-6 72 -496 -5 c-273 -2 -501 -6 -508 -8 -6 -2 -14 -17 -18
-34 -4 -17 -29 -55 -56 -85 -103 -113 -241 -123 -353 -25 -62 55 -88 108 -94
191 -4 59 -1 75 22 122 33 68 78 108 151 135 93 35 163 26 242 -33 23 -17 54
-50 69 -73 l26 -42 502 4 501 5 6 107 c11 209 72 376 213 582 147 216 351 366
618 455 59 19 142 39 185 44 88 10 264 5 365 -9z m-2884 -2889 c29 0 40 -27
19 -47 -36 -37 -117 -4 -117 47 0 24 19 29 50 13 14 -7 35 -13 48 -13z m5081
-803 c28 -31 19 -53 -27 -68 -32 -11 -37 -10 -54 11 -24 29 -23 46 4 64 31 22
51 20 77 -7z m-3844 -27 c15 -48 -46 -85 -91 -55 -36 23 -27 74 16 87 24 8 69
-12 75 -32z m2994 8 c15 -40 -12 -78 -56 -78 -25 0 -43 26 -43 63 0 32 7 37
52 37 31 0 40 -4 47 -22z"/>
<path d="M4933 6800 c-79 -12 -189 -47 -281 -91 l-83 -40 103 -76 c159 -119
350 -254 353 -251 2 2 5 108 7 236 l3 232 -25 -1 c-14 -1 -48 -5 -77 -9z"/>
<path d="M5181 6585 l3 -224 31 19 c16 10 78 47 137 83 89 55 239 158 272 188
10 9 -146 89 -219 112 -45 14 -85 23 -193 41 l-34 6 3 -225z"/>
<path d="M4359 6483 c-104 -107 -171 -208 -220 -333 -51 -130 -90 -333 -76
-392 7 -27 -1 -20 451 -375 59 -47 72 -53 114 -53 63 0 103 -26 137 -89 38
-69 229 -240 304 -271 36 -14 55 -5 169 79 44 33 100 72 124 86 53 34 68 52
68 84 0 63 63 111 145 111 25 0 122 64 300 200 55 43 132 93 229 150 l39 23
-6 111 c-11 197 -80 402 -180 536 -45 61 -176 200 -188 200 -4 0 -40 -22 -81
-48 -40 -27 -129 -82 -198 -122 -69 -41 -161 -101 -205 -133 -148 -110 -196
-119 -288 -49 -29 21 -126 87 -217 147 -91 59 -192 129 -225 155 -55 42 -97
70 -108 70 -2 0 -42 -39 -88 -87z m369 -427 c80 -41 142 -131 142 -206 -1 -71
-69 -174 -139 -209 -49 -25 -109 -33 -155 -20 -80 22 -166 136 -166 221 0 60
37 144 78 178 71 58 168 73 240 36z m944 -32 c147 -103 138 -310 -17 -391 -50
-27 -132 -22 -187 10 -154 90 -158 294 -8 385 49 30 61 33 113 30 43 -3 67
-11 99 -34z m-428 -690 c12 -4 16 -20 16 -53 0 -77 -10 -84 -138 -89 -144 -6
-162 3 -162 82 0 29 3 56 7 59 8 9 256 9 277 1z"/>
<path d="M4569 5911 c-41 -41 -40 -90 2 -125 40 -34 85 -34 122 0 57 53 55 97
-6 134 -46 28 -83 25 -118 -9z"/>
<path d="M5523 5910 c-55 -23 -57 -102 -4 -137 46 -31 77 -29 112 6 36 37 38
79 5 110 -26 25 -80 35 -113 21z"/>
<path d="M2592 5754 c-48 -34 -64 -97 -38 -159 36 -86 151 -84 196 5 30 59 26
96 -14 136 -28 28 -41 34 -78 34 -24 0 -54 -7 -66 -16z"/>
<path d="M7458 5754 c-73 -39 -76 -159 -6 -208 27 -19 77 -21 113 -4 32 15 65
75 65 120 0 82 -97 133 -172 92z"/>
<path d="M4090 5466 c0 -19 48 -153 72 -201 52 -102 167 -255 193 -255 19 0
165 167 165 188 0 38 -353 272 -411 272 -11 0 -19 -2 -19 -4z"/>
<path d="M6070 5441 c-111 -56 -292 -157 -337 -188 -69 -47 -70 -72 -7 -142
25 -27 64 -65 86 -83 39 -30 42 -31 52 -14 6 10 28 41 49 68 51 66 167 257
167 277 1 9 7 34 15 56 8 21 13 40 12 41 -1 1 -18 -6 -37 -15z"/>
<path d="M4563 5002 c-51 -48 -93 -91 -93 -94 0 -12 113 -94 165 -120 72 -36
233 -88 322 -103 43 -8 79 -12 81 -11 1 2 0 33 -4 68 -6 62 -8 66 -41 82 -41
20 -108 74 -212 172 -65 61 -110 95 -123 94 -2 -1 -45 -40 -95 -88z"/>
<path d="M5435 5000 c-135 -105 -227 -170 -240 -170 -9 0 -11 -95 -2 -146 3
-14 195 33 292 71 39 15 111 53 162 83 l92 55 -28 36 c-53 67 -139 141 -163
141 -14 0 -61 -29 -113 -70z"/>
<path d="M5042 3504 c-26 -18 -62 -84 -62 -114 0 -31 37 -98 65 -116 100 -66
233 67 180 180 -10 20 -30 43 -46 51 -37 20 -109 19 -137 -1z"/>
<path d="M2315 7348 c-128 -45 -187 -216 -109 -316 59 -73 164 -102 240 -66
19 9 54 38 77 65 l42 48 174 1 173 2 47 -44 c25 -25 75 -69 111 -98 36 -30 89
-76 118 -103 58 -54 49 -53 182 -29 l45 8 -114 110 c-63 60 -160 155 -216 212
l-101 102 -216 0 -215 0 -32 40 c-56 70 -131 94 -206 68z"/>
</g>
</svg>
